<svg width="10" height="4" viewBox="0 0 10 4" fill="none" xmlns="http://www.w3.org/2000/svg">
<path d="M1.27656 0.1C1.05565 -0.0656855 0.742248 -0.0209139 0.576562 0.2C0.410877 0.420914 0.455649 0.734315 0.676562 0.9L1.27656 0.1ZM9.27656 0.9C9.49748 0.734315 9.54225 0.420914 9.37656 0.2C9.21088 -0.0209139 8.89748 -0.0656855 8.67656 0.1L9.27656 0.9ZM4.97656 3.5L4.67656 3.9C4.85434 4.03333 5.09878 4.03333 5.27656 3.9L4.97656 3.5ZM0.676562 0.9L4.67656 3.9L5.27656 3.1L1.27656 0.1L0.676562 0.9ZM5.27656 3.9L9.27656 0.9L8.67656 0.1L4.67656 3.1L5.27656 3.9Z" fill="#2D2C29"/>
</svg>
