<svg width="106" height="364" viewBox="0 0 106 364" fill="none" xmlns="http://www.w3.org/2000/svg">
    <path d="M1 4.00001C1 2.34315 2.34315 1 4 1H102C103.657 1 105 2.34315 105 4V360C105 361.657 103.657 363 102 363H4C2.34314 363 1 361.657 1 360V4.00001Z" fill="#2D2C29"/>
    <rect x="3" y="3" width="100" height="100" rx="2" fill="#EAE7DF"/>
    <path d="M38.282 21.6962C38.282 22.8812 37.3141 23.8474 36.1134 23.8474C34.9127 23.8474 33.9448 22.8812 33.9448 21.6962C33.9448 20.5111 34.9127 19.5449 36.1134 19.5449C37.3141 19.5449 38.282 20.5111 38.282 21.6962Z" stroke="#2D2C29"/>
    <path d="M77.6423 21.6962C77.6423 22.8812 76.6745 23.8474 75.4737 23.8474C74.273 23.8474 73.3052 22.8812 73.3052 21.6962C73.3052 20.5111 74.273 19.5449 75.4737 19.5449C76.6745 19.5449 77.6423 20.5111 77.6423 21.6962Z" stroke="#2D2C29"/>
    <line y1="-0.5" x2="14.1316" y2="-0.5" transform="matrix(0.660932 0.750446 -0.754698 0.656073 46.1208 11.0908)" stroke="#2D2C29"/>
    <line y1="-0.5" x2="16.4611" y2="-0.5" transform="matrix(-0.688984 0.724777 -0.729241 -0.684257 67.469 9.76562)" stroke="#2D2C29"/>
    <line y1="-0.5" x2="34.5692" y2="-0.5" transform="matrix(-0.0771946 0.997016 -0.997092 -0.0762015 66.1355 11.0908)" stroke="#2D2C29"/>
    <line y1="-0.5" x2="33.6801" y2="-0.5" transform="matrix(0.178274 0.983981 -0.984383 0.176039 46.7886 12.417)" stroke="#2D2C29"/>
    <line y1="-0.5" x2="39.4116" y2="-0.5" transform="matrix(0.998726 -0.050453 0.0511128 0.998693 38.782 70.7441)" stroke="#2D2C29"/>
    <line y1="-0.5" x2="24.0933" y2="-0.5" transform="matrix(-0.13845 0.990369 -0.990614 -0.136692 56.1274 21.6963)" stroke="#2D2C29"/>
    <line y1="-0.5" x2="24.9643" y2="-0.5" transform="matrix(0.293963 0.955817 -0.95688 0.290482 56.1274 21.6963)" stroke="#2D2C29"/>
    <line x1="52.7917" y1="45.0576" x2="63.466" y2="45.0576" stroke="#2D2C29"/>
    <line y1="-0.5" x2="9.03564" y2="-0.5" transform="matrix(0.590677 0.806908 -0.810552 0.585666 52.7917 45.5576)" stroke="#2D2C29"/>
    <line y1="-0.5" x2="9.03564" y2="-0.5" transform="matrix(-0.590677 0.806908 -0.810552 -0.585666 63.4663 45.5576)" stroke="#2D2C29"/>
    <line y1="-0.5" x2="12.1868" y2="-0.5" transform="matrix(0.492689 0.870206 -0.872934 0.487838 58.1294 52.8477)" stroke="#2D2C29"/>
    <line y1="-0.5" x2="10.9844" y2="-0.5" transform="matrix(-0.42515 0.905123 -0.907233 -0.420627 58.1294 52.8477)" stroke="#2D2C29"/>
    <line y1="-0.5" x2="16.9884" y2="-0.5" transform="matrix(0.903223 -0.429172 0.433746 0.901035 38.782 70.7441)" stroke="#2D2C29"/>
    <line y1="-0.5" x2="15.6056" y2="-0.5" transform="matrix(0.940504 0.339781 -0.343713 0.939075 63.4663 63.4531)" stroke="#2D2C29"/>
    <line x1="53.4595" y1="62.9531" x2="64.1338" y2="62.9531" stroke="#2D2C29"/>
    <line y1="-0.5" x2="17.7958" y2="-0.5" transform="matrix(0.97471 0.223474 -0.226253 0.974069 38.782 70.7441)" stroke="#2D2C29"/>
    <path d="M56.1274 74.3896H63.466" stroke="#2D2C29"/>
    <line y1="-0.5" x2="15.8431" y2="-0.5" transform="matrix(0.926407 -0.376524 0.38075 0.924678 63.4663 74.7207)" stroke="#2D2C29"/>
    <path d="M16.2526 82.1822L47.6586 39.9948L10.1589 22.1823C10.1589 22.1823 29.8877 81.9739 32.8153 94.9948" stroke="#2D2C29"/>
    <path d="M96.5658 79.6831L68.2848 39.9957L98.7534 26.0893L83.4765 92.8793" stroke="#2D2C29"/>
    <path d="M10.1089 21.3652L8.76027 51.5229L15.4317 82.0123L33.4446 95.5999L59.7967 101.234L82.4796 93.6115L97.1567 78.0354L101.827 51.5229L98.8402 25.3125" stroke="#2D2C29"/>
    <path d="M18.0554 14.7393L27.7756 7.82209L46.5105 10.8843" stroke="#2D2C29"/>
    <path d="M67.5837 9.45079L88.8183 9.45164L94.9365 18.7302" stroke="#2D2C29"/>
    <g clip-path="url(#clip0)">
        <rect x="3" y="105" width="100" height="50" rx="2" fill="#EAE7DF" fill-opacity="0.1"/>
        <line y1="-0.5" x2="13.5663" y2="-0.5" transform="matrix(0.660932 0.750446 -0.754698 0.656073 43.396 148.768)" stroke="#EAE7DF"/>
        <line y1="-0.5" x2="15.8027" y2="-0.5" transform="matrix(-0.688984 0.724777 -0.729241 -0.684257 63.8901 147.494)" stroke="#EAE7DF"/>
        <line y1="-0.5" x2="33.1864" y2="-0.5" transform="matrix(-0.0771947 0.997016 -0.997092 -0.0762015 62.6101 148.768)" stroke="#EAE7DF"/>
        <line y1="-0.5" x2="32.3329" y2="-0.5" transform="matrix(0.178274 0.983981 -0.984383 0.176039 44.0371 150.04)" stroke="#EAE7DF"/>
        <path d="M16.4532 152.269L25.7846 145.629L43.7701 148.569" stroke="#EAE7DF"/>
        <path d="M64.0005 147.193L84.3857 147.194L90.2592 156.101" stroke="#EAE7DF"/>
    </g>
    <g clip-path="url(#clip1)">
        <rect x="3" y="157" width="100" height="50" rx="2" fill="#EAE7DF" fill-opacity="0.1"/>
        <path d="M31.1633 189.427C31.1633 191.139 29.7654 192.533 28.034 192.533C26.3027 192.533 24.9048 191.139 24.9048 189.427C24.9048 187.715 26.3027 186.321 28.034 186.321C29.7654 186.321 31.1633 187.715 31.1633 189.427Z" stroke="#EAE7DF"/>
        <path d="M84.6938 189.427C84.6938 191.139 83.2959 192.533 81.5646 192.533C79.8332 192.533 78.4353 191.139 78.4353 189.427C78.4353 187.715 79.8332 186.321 81.5646 186.321C83.2959 186.321 84.6938 187.715 84.6938 189.427Z" stroke="#EAE7DF"/>
        <line y1="-0.5" x2="19.219" y2="-0.5" transform="matrix(0.660932 0.750446 -0.754698 0.656073 41.6443 175.004)" stroke="#EAE7DF"/>
        <line y1="-0.5" x2="22.3871" y2="-0.5" transform="matrix(-0.688984 0.724777 -0.729241 -0.684257 70.678 173.201)" stroke="#EAE7DF"/>
        <line y1="-0.5" x2="47.0141" y2="-0.5" transform="matrix(-0.0771947 0.997016 -0.997092 -0.0762015 68.864 175.004)" stroke="#EAE7DF"/>
        <line y1="-0.5" x2="45.805" y2="-0.5" transform="matrix(0.178274 0.983981 -0.984383 0.176039 42.5525 176.807)" stroke="#EAE7DF"/>
        <line y1="-0.5" x2="32.7669" y2="-0.5" transform="matrix(-0.13845 0.990369 -0.990614 -0.136692 55.2537 189.427)" stroke="#EAE7DF"/>
        <line y1="-0.5" x2="33.9514" y2="-0.5" transform="matrix(0.293963 0.955817 -0.95688 0.290482 55.2537 189.427)" stroke="#EAE7DF"/>
        <path d="M1.02367 271.688L43.7359 214.313L-7.2637 190.088C-7.2637 190.088 19.5675 271.405 23.5489 289.113" stroke="#EAE7DF"/>
        <path d="M110.249 268.288L71.7869 214.314L113.224 195.401L92.4476 286.235" stroke="#EAE7DF"/>
        <path d="M-7.33215 188.977L-9.16627 229.991L-0.0931325 271.457L24.4044 289.936L60.2433 297.598L91.0919 287.231L111.053 266.048L117.404 229.991L113.342 194.345" stroke="#EAE7DF"/>
        <path d="M3.47553 179.965L16.695 170.557L42.1745 174.722" stroke="#EAE7DF"/>
        <path d="M70.8336 172.773L99.7127 172.774L108.034 185.393" stroke="#EAE7DF"/>
    </g>
    <g clip-path="url(#clip2)">
        <rect x="28" y="209" width="50" height="100" rx="2" fill="#EAE7DF" fill-opacity="0.1"/>
        <line y1="-0.5" x2="25.1542" y2="-0.5" transform="matrix(0.660931 0.750446 -0.754697 0.656073 32.7549 224.401)" stroke="#EAE7DF"/>
        <line y1="-0.5" x2="29.3008" y2="-0.5" transform="matrix(-0.688984 0.724777 -0.729241 -0.684257 70.7551 222.042)" stroke="#EAE7DF"/>
        <line y1="-0.5" x2="61.5331" y2="-0.5" transform="matrix(-0.0771946 0.997016 -0.997092 -0.0762015 68.3806 224.401)" stroke="#EAE7DF"/>
        <line y1="-0.5" x2="59.9507" y2="-0.5" transform="matrix(0.178274 0.983981 -0.984383 0.176039 33.9436 226.762)" stroke="#EAE7DF"/>
        <line y1="-0.5" x2="42.8861" y2="-0.5" transform="matrix(-0.13845 0.990369 -0.990614 -0.136692 50.5674 243.279)" stroke="#EAE7DF"/>
        <line y1="-0.5" x2="44.4364" y2="-0.5" transform="matrix(0.293963 0.955817 -0.95688 0.290482 50.5674 243.279)" stroke="#EAE7DF"/>
        <line x1="44.6289" y1="285.252" x2="63.6291" y2="285.252" stroke="#EAE7DF"/>
        <line y1="-0.5" x2="16.0834" y2="-0.5" transform="matrix(0.590677 0.806908 -0.810552 0.585666 44.6289 285.752)" stroke="#EAE7DF"/>
        <line y1="-0.5" x2="16.0834" y2="-0.5" transform="matrix(-0.590677 0.806908 -0.810553 -0.585666 63.6299 285.752)" stroke="#EAE7DF"/>
        <line y1="-0.5" x2="21.6925" y2="-0.5" transform="matrix(0.492689 0.870206 -0.872934 0.487838 54.1304 298.729)" stroke="#EAE7DF"/>
        <line y1="-0.5" x2="19.5522" y2="-0.5" transform="matrix(-0.42515 0.905123 -0.907233 -0.420628 54.1304 298.729)" stroke="#EAE7DF"/>
        <path d="M-20.4103 350.945L35.4925 275.851L-31.2571 244.145C-31.2571 244.145 3.86025 350.574 9.07125 373.751" stroke="#EAE7DF"/>
        <path d="M122.546 346.495L72.2061 275.852L126.44 251.098L99.2474 369.985" stroke="#EAE7DF"/>
        <path d="M-31.3467 242.689L-33.7472 296.37L-21.8721 350.641L10.1908 374.827L57.0976 384.856L97.4731 371.288L123.598 343.562L131.911 296.37L126.595 249.716" stroke="#EAE7DF"/>
        <path d="M-17.201 230.895L0.100956 218.582L33.4491 224.033" stroke="#EAE7DF"/>
        <path d="M70.9583 221.482L108.756 221.484L119.646 238" stroke="#EAE7DF"/>
    </g>
    <g clip-path="url(#clip3)">
        <rect x="3" y="311" width="100" height="50" rx="2" fill="#EAE7DF" fill-opacity="0.1"/>
        <line y1="-0.5" x2="80.3997" y2="-0.5" transform="matrix(0.998726 -0.0504531 0.0511128 0.998693 13.9958 344.197)" stroke="#EAE7DF"/>
        <line y1="-0.5" x2="24.861" y2="-0.5" transform="matrix(0.492689 0.870205 -0.872934 0.487838 53.4641 307.69)" stroke="#EAE7DF"/>
        <line y1="-0.5" x2="22.4081" y2="-0.5" transform="matrix(-0.42515 0.905123 -0.907233 -0.420628 53.4641 307.69)" stroke="#EAE7DF"/>
        <line y1="-0.5" x2="34.6563" y2="-0.5" transform="matrix(0.903223 -0.429172 0.433746 0.901035 13.9958 344.197)" stroke="#EAE7DF"/>
        <line y1="-0.5" x2="31.8355" y2="-0.5" transform="matrix(0.940504 0.339782 -0.343713 0.939075 64.3513 329.324)" stroke="#EAE7DF"/>
        <line x1="43.9368" y1="328.824" x2="65.7123" y2="328.824" stroke="#EAE7DF"/>
        <line y1="-0.5" x2="36.3034" y2="-0.5" transform="matrix(0.97471 0.223473 -0.226253 0.974069 13.9958 344.197)" stroke="#EAE7DF"/>
        <path d="M49.3806 351.635H64.3513" stroke="#EAE7DF"/>
        <line y1="-0.5" x2="32.3199" y2="-0.5" transform="matrix(0.926407 -0.376524 0.380749 0.924678 64.3513 352.311)" stroke="#EAE7DF"/>
        <path d="M-31.9647 367.532L32.1036 281.47L-44.3958 245.133C-44.3958 245.133 -4.14899 367.107 1.82317 393.67" stroke="#EAE7DF"/>
        <path d="M131.873 362.432L74.1798 281.47L136.336 253.101L105.171 389.352" stroke="#EAE7DF"/>
        <path d="M-44.4985 243.465L-47.2497 304.986L-33.64 367.185L3.10623 394.904L56.8646 406.397L103.138 390.847L133.079 359.072L142.606 304.986L136.513 251.517" stroke="#EAE7DF"/>
    </g>
    <path d="M4 2H102V0H4V2ZM104 4V360H106V4H104ZM102 362H4V364H102V362ZM2 360V4.00001H0V360H2ZM4 362C2.89543 362 2 361.105 2 360H0C0 362.209 1.79086 364 4 364V362ZM104 360C104 361.105 103.105 362 102 362V364C104.209 364 106 362.209 106 360H104ZM102 2C103.105 2 104 2.89543 104 4H106C106 1.79086 104.209 0 102 0V2ZM4 0C1.79086 0 0 1.79087 0 4.00001H2C2 2.89543 2.89543 2 4 2V0Z" fill="#EAE7DF" fill-opacity="0.5"/>
    <defs>
        <clipPath id="clip0">
            <rect x="3" y="105" width="100" height="50" rx="2" fill="white"/>
        </clipPath>
        <clipPath id="clip1">
            <rect x="3" y="157" width="100" height="50" rx="2" fill="white"/>
        </clipPath>
        <clipPath id="clip2">
            <rect x="28" y="209" width="50" height="100" rx="2" fill="white"/>
        </clipPath>
        <clipPath id="clip3">
            <rect x="3" y="311" width="100" height="50" rx="2" fill="white"/>
        </clipPath>
    </defs>
</svg>
