<svg width="76" height="40" viewBox="0 0 76 40" fill="none" xmlns="http://www.w3.org/2000/svg">
<rect x="0.5" y="0.5" width="75" height="39" rx="19.5" fill="#EAE7DF"/>
<circle cx="53.5" cy="20.5" r="1.5" fill="#2D2C29"/>
<circle cx="58.5" cy="20.5" r="1.5" fill="#2D2C29"/>
<rect x="50.5" y="11.5" width="11" height="17" rx="5.5" stroke="#2D2C29"/>
<path d="M18.656 25V21.864L15.984 16.712H17.392L18.448 18.904C18.5867 19.2133 18.7253 19.5173 18.864 19.816C19.0133 20.104 19.1627 20.4027 19.312 20.712H19.376C19.5253 20.4027 19.664 20.104 19.792 19.816C19.9307 19.5173 20.0747 19.2133 20.224 18.904L21.28 16.712H22.656L19.984 21.864V25H18.656ZM27.0481 25.192C26.4721 25.192 25.9441 25.0907 25.4641 24.888C24.9948 24.6853 24.5895 24.3973 24.2481 24.024C23.9068 23.6507 23.6401 23.192 23.4481 22.648C23.2561 22.104 23.1601 21.496 23.1601 20.824C23.1601 20.152 23.2561 19.5493 23.4481 19.016C23.6401 18.4827 23.9068 18.0347 24.2481 17.672C24.5895 17.2987 24.9948 17.016 25.4641 16.824C25.9441 16.6213 26.4721 16.52 27.0481 16.52C27.6135 16.52 28.1308 16.6213 28.6001 16.824C29.0801 17.016 29.4908 17.2987 29.8321 17.672C30.1841 18.0347 30.4561 18.4827 30.6481 19.016C30.8401 19.5493 30.9361 20.152 30.9361 20.824C30.9361 21.496 30.8401 22.104 30.6481 22.648C30.4561 23.192 30.1841 23.6507 29.8321 24.024C29.4908 24.3973 29.0801 24.6853 28.6001 24.888C28.1308 25.0907 27.6135 25.192 27.0481 25.192ZM27.0481 24.072C27.8161 24.072 28.4241 23.784 28.8721 23.208C29.3308 22.6213 29.5601 21.8267 29.5601 20.824C29.5601 19.8213 29.3308 19.0427 28.8721 18.488C28.4241 17.9227 27.8161 17.64 27.0481 17.64C26.2801 17.64 25.6668 17.9227 25.2081 18.488C24.7601 19.0427 24.5361 19.8213 24.5361 20.824C24.5361 21.8267 24.7601 22.6213 25.2081 23.208C25.6668 23.784 26.2801 24.072 27.0481 24.072ZM36.422 25.192C35.9527 25.192 35.5153 25.128 35.11 25C34.7153 24.8827 34.3687 24.68 34.07 24.392C33.782 24.104 33.5527 23.7307 33.382 23.272C33.222 22.8027 33.142 22.2267 33.142 21.544V16.712H34.47V21.56C34.47 22.04 34.518 22.44 34.614 22.76C34.71 23.08 34.8433 23.336 35.014 23.528C35.1953 23.72 35.4033 23.8587 35.638 23.944C35.8833 24.0293 36.15 24.072 36.438 24.072C36.726 24.072 36.9873 24.0293 37.222 23.944C37.4673 23.8587 37.6753 23.72 37.846 23.528C38.0273 23.336 38.166 23.08 38.262 22.76C38.3687 22.44 38.422 22.04 38.422 21.56V16.712H39.686V21.544C39.686 22.2267 39.606 22.8027 39.446 23.272C39.286 23.7307 39.062 24.104 38.774 24.392C38.486 24.68 38.1393 24.8827 37.734 25C37.3393 25.128 36.902 25.192 36.422 25.192Z" fill="#2D2C29"/>
<rect x="4.5" y="4.5" width="67" height="31" rx="15.5" stroke="#2D2C29"/>
<rect x="2.5" y="2.5" width="71" height="35" rx="17.5" stroke="#2D2C29"/>
<rect x="0.5" y="0.5" width="75" height="39" rx="19.5" stroke="#2D2C29"/>
</svg>
