<svg width="44" height="44" viewBox="0 0 44 44" fill="none" xmlns="http://www.w3.org/2000/svg">
<rect x="15.5" y="11.5" width="13" height="19" rx="6.5" fill="#EAE7DF"/>
<ellipse cx="19.084" cy="21.5553" rx="1.75" ry="1.66667" fill="#2D2C29"/>
<ellipse cx="24.916" cy="21.5553" rx="1.75" ry="1.66667" fill="#2D2C29"/>
<rect x="15.5" y="11.5" width="13" height="19" rx="6.5" stroke="#2D2C29"/>
<rect x="22.5" y="23.5" width="15" height="15" rx="7.5" fill="#EAE7DF"/>
<rect x="22.5" y="23.5" width="15" height="15" rx="7.5" stroke="#EAE7DF"/>
<path d="M30.1271 22.8158C30.2756 22.6674 30.4769 22.584 30.6868 22.584C30.8968 22.584 31.0981 22.6674 31.2466 22.8158L33.6216 25.1908C33.77 25.3392 33.8533 25.5406 33.8533 25.7505C33.8533 25.9604 33.77 26.1617 33.6216 26.3102L31.2466 28.6852C31.0972 28.8294 30.8973 28.9092 30.6897 28.9074C30.4821 28.9056 30.2836 28.8223 30.1368 28.6755C29.99 28.5288 29.9067 28.3302 29.9049 28.1226C29.9031 27.9151 29.9829 27.7151 30.1271 27.5658L31.1508 26.5421H29.8952C27.0863 26.5421 24.7493 28.8791 24.7493 31.688C24.7493 34.4968 27.0863 36.8338 29.8952 36.8338C32.704 36.8338 35.041 34.4968 35.041 31.688C35.041 31.478 35.1244 31.2767 35.2729 31.1282C35.4214 30.9797 35.6227 30.8963 35.8327 30.8963C36.0426 30.8963 36.244 30.9797 36.3925 31.1282C36.5409 31.2767 36.6243 31.478 36.6243 31.688C36.6243 35.3708 33.578 38.4171 29.8952 38.4171C26.2123 38.4171 23.166 35.3708 23.166 31.688C23.166 28.0051 26.2123 24.9588 29.8952 24.9588H31.1508L30.1271 23.9352C29.9787 23.7867 29.8954 23.5854 29.8954 23.3755C29.8954 23.1656 29.9787 22.9642 30.1271 22.8158V22.8158Z" fill="#2D2C29"/>
</svg>
