<svg width="17" height="20" viewBox="0 0 17 20" fill="none" xmlns="http://www.w3.org/2000/svg">
<path d="M7.793 0.292786C7.98053 0.105315 8.23484 0 8.5 0C8.76516 0 9.01947 0.105315 9.207 0.292786L12.207 3.29279C12.3892 3.48139 12.49 3.73399 12.4877 3.99619C12.4854 4.25838 12.3802 4.5092 12.1948 4.6946C12.0094 4.88001 11.7586 4.98518 11.4964 4.98746C11.2342 4.98974 10.9816 4.88894 10.793 4.70679L9.5 3.41379V12.9998C9.5 13.265 9.39464 13.5194 9.20711 13.7069C9.01957 13.8944 8.76522 13.9998 8.5 13.9998C8.23478 13.9998 7.98043 13.8944 7.79289 13.7069C7.60536 13.5194 7.5 13.265 7.5 12.9998V3.41379L6.207 4.70679C6.0184 4.88894 5.7658 4.98974 5.5036 4.98746C5.2414 4.98518 4.99059 4.88001 4.80518 4.6946C4.61977 4.5092 4.5146 4.25838 4.51233 3.99619C4.51005 3.73399 4.61084 3.48139 4.793 3.29279L7.793 0.292786ZM0.5 8.99979C0.5 8.46935 0.710714 7.96065 1.08579 7.58557C1.46086 7.2105 1.96957 6.99979 2.5 6.99979H4.5C4.76522 6.99979 5.01957 7.10514 5.20711 7.29268C5.39464 7.48022 5.5 7.73457 5.5 7.99979C5.5 8.265 5.39464 8.51936 5.20711 8.70689C5.01957 8.89443 4.76522 8.99979 4.5 8.99979H2.5V17.9998H14.5V8.99979H12.5C12.2348 8.99979 11.9804 8.89443 11.7929 8.70689C11.6054 8.51936 11.5 8.265 11.5 7.99979C11.5 7.73457 11.6054 7.48022 11.7929 7.29268C11.9804 7.10514 12.2348 6.99979 12.5 6.99979H14.5C15.0304 6.99979 15.5391 7.2105 15.9142 7.58557C16.2893 7.96065 16.5 8.46935 16.5 8.99979V17.9998C16.5 18.5302 16.2893 19.0389 15.9142 19.414C15.5391 19.7891 15.0304 19.9998 14.5 19.9998H2.5C1.96957 19.9998 1.46086 19.7891 1.08579 19.414C0.710714 19.0389 0.5 18.5302 0.5 17.9998V8.99979Z" fill="#2D2C29"/>
</svg>
