<svg width="44" height="44" viewBox="0 0 44 44" fill="none" xmlns="http://www.w3.org/2000/svg">
<path d="M0 22C0 9.84974 9.84974 0 22 0V0C34.1503 0 44 9.84974 44 22V22C44 34.1503 34.1503 44 22 44V44C9.84974 44 0 34.1503 0 22V22Z" fill="#EAE7DF"/>
<rect x="2.5" y="2.5" width="39" height="39" rx="19.5" fill="#EAE7DF"/>
<path d="M21.1233 28V20H23.8753V28H21.1233ZM22.4993 19.008C22.0513 19.008 21.6833 18.88 21.3953 18.624C21.1073 18.368 20.9633 18.0373 20.9633 17.632C20.9633 17.2267 21.1073 16.896 21.3953 16.64C21.6833 16.384 22.0513 16.256 22.4993 16.256C22.9473 16.256 23.3153 16.384 23.6033 16.64C23.8913 16.896 24.0353 17.2267 24.0353 17.632C24.0353 18.0373 23.8913 18.368 23.6033 18.624C23.3153 18.88 22.9473 19.008 22.4993 19.008Z" fill="#2D2C29"/>
<rect x="2.5" y="2.5" width="39" height="39" rx="19.5" stroke="#2D2C29"/>
</svg>
