<svg width="150" height="224" viewBox="0 0 150 224" fill="none" xmlns="http://www.w3.org/2000/svg">
<circle cx="75" cy="112" r="61" stroke="#FF0000" stroke-width="6"/>
<path d="M75.0121 49.7646L74.9879 174.421" stroke="#FF0000" stroke-width="2" stroke-dasharray="4 4"/>
<path d="M12.4316 112.081L47.5684 112.074" stroke="#FF0000" stroke-width="2" stroke-dasharray="4 4"/>
<path d="M102.432 112.081L137.568 112.074" stroke="#FF0000" stroke-width="2" stroke-dasharray="4 4"/>
<path d="M56.0051 119.993C60.4234 119.994 64.0057 116.413 64.0064 111.995C64.0071 107.577 60.426 103.994 56.0077 103.993C51.5894 103.993 48.0071 107.574 48.0064 111.992C48.0057 116.41 51.5868 119.993 56.0051 119.993Z" stroke="#FF0000" stroke-width="2"/>
<path d="M93.9924 120.006C98.4107 120.007 101.993 116.426 101.994 112.007C101.994 107.589 98.4133 104.007 93.995 104.006C89.5767 104.005 85.9944 107.587 85.9937 112.005C85.993 116.423 89.5741 120.005 93.9924 120.006Z" stroke="#FF0000" stroke-width="2"/>
</svg>
