<svg width="1000" height="516" viewBox="0 0 1000 516" fill="none" xmlns="http://www.w3.org/2000/svg">
<g clip-path="url(#clip0)">
<path fill-rule="evenodd" clip-rule="evenodd" d="M1000 0H0V516H1000V0ZM500.5 156C465.43 156 437 184.43 437 219.5V292.5C437 327.57 465.43 356 500.5 356C535.57 356 564 327.57 564 292.5V219.5C564 184.43 535.57 156 500.5 156Z" fill="#038100" fill-opacity="0.33"/>
<g style="mix-blend-mode:lighten" filter="url(#filter0_d)">
<path d="M558.065 219.543L558.053 292.475L564.068 292.477L564.08 219.544L558.065 219.543ZM443.015 292.457L443.027 219.525L437.012 219.523L437 292.456L443.015 292.457ZM500.525 349.985C468.758 349.98 443.01 324.223 443.015 292.457L437 292.456C436.995 327.544 465.435 355.994 500.523 356L500.525 349.985ZM558.053 292.475C558.047 324.242 532.292 349.99 500.525 349.985L500.523 356C535.613 356.006 564.062 327.565 564.068 292.477L558.053 292.475ZM500.555 162.015C532.322 162.02 558.07 187.777 558.065 219.543L564.08 219.544C564.085 184.456 535.645 156.006 500.556 156L500.555 162.015ZM500.556 156C465.468 155.994 437.017 184.435 437.012 219.523L443.027 219.525C443.032 187.758 468.789 162.01 500.555 162.015L500.556 156Z" fill="white"/>
</g>
<g style="mix-blend-mode:lighten" filter="url(#filter1_d)">
<path d="M564 248L1001 248" stroke="white"/>
</g>
<g style="mix-blend-mode:lighten" filter="url(#filter2_d)">
<path d="M564 280L1001 280" stroke="white"/>
</g>
<g style="mix-blend-mode:lighten" filter="url(#filter3_d)">
<path d="M562 312L1001 312" stroke="white"/>
</g>
<g style="mix-blend-mode:lighten" filter="url(#filter4_d)">
<path d="M537 344L1001 344" stroke="white"/>
</g>
<g style="mix-blend-mode:lighten" filter="url(#filter5_d)">
<path d="M564 216L1001 216" stroke="white"/>
</g>
<g style="mix-blend-mode:lighten" filter="url(#filter6_d)">
<path d="M553 184L1001 184" stroke="white"/>
</g>
<g style="mix-blend-mode:lighten" filter="url(#filter7_d)">
<path d="M1 152L1001 152" stroke="white"/>
</g>
<g style="mix-blend-mode:lighten" filter="url(#filter8_d)">
<path d="M1 120L1001 120" stroke="white"/>
</g>
<g style="mix-blend-mode:lighten" filter="url(#filter9_d)">
<path d="M1 88L1001 88.0001" stroke="white"/>
</g>
<g style="mix-blend-mode:lighten" filter="url(#filter10_d)">
<path d="M1 56L1001 56.0001" stroke="white"/>
</g>
<g style="mix-blend-mode:lighten" filter="url(#filter11_d)">
<path d="M1 24L1001 24.0001" stroke="white"/>
</g>
<g style="mix-blend-mode:lighten" filter="url(#filter12_d)">
<path d="M564 -8L1001 -7.99996" stroke="white"/>
</g>
<g style="mix-blend-mode:lighten" filter="url(#filter13_d)">
<path d="M1 249L437 248" stroke="white"/>
</g>
<g style="mix-blend-mode:lighten" filter="url(#filter14_d)">
<path d="M1 281L437 280" stroke="white"/>
</g>
<g style="mix-blend-mode:lighten" filter="url(#filter15_d)">
<path d="M1 313L442 312" stroke="white"/>
</g>
<g style="mix-blend-mode:lighten" filter="url(#filter16_d)">
<path d="M1 345L470 344" stroke="white"/>
</g>
<g style="mix-blend-mode:lighten" filter="url(#filter17_d)">
<path d="M1 378L1001 375" stroke="white"/>
</g>
<g style="mix-blend-mode:lighten" filter="url(#filter18_d)">
<path d="M1 410L1001 407" stroke="white"/>
</g>
<g style="mix-blend-mode:lighten" filter="url(#filter19_d)">
<path d="M1 442L1001 439" stroke="white"/>
</g>
<g style="mix-blend-mode:lighten" filter="url(#filter20_d)">
<path d="M1 474L1001 471" stroke="white"/>
</g>
<g style="mix-blend-mode:lighten" filter="url(#filter21_d)">
<path d="M1 506L1001 503" stroke="white"/>
</g>
<g style="mix-blend-mode:lighten" filter="url(#filter22_d)">
<path d="M1 217L437 216" stroke="white"/>
</g>
<g style="mix-blend-mode:lighten" filter="url(#filter23_d)">
<path d="M1 185L451 184" stroke="white"/>
</g>
<g style="mix-blend-mode:lighten" filter="url(#filter24_d)">
<path d="M1 -7L437 -8" stroke="white"/>
</g>
<path fill-rule="evenodd" clip-rule="evenodd" d="M492.147 -8.34522C491.088 -9.94093 490.472 -11.8552 490.472 -13.9136C490.472 -19.484 494.987 -23.9997 500.558 -23.9997C506.128 -23.9997 510.644 -19.484 510.644 -13.9136C510.644 -11.8022 509.995 -9.84242 508.886 -8.22257L540.23 110.482C540.23 110.482 544.698 110.243 546.281 111.827C547.865 113.41 550.988 134.016 550.988 134.016C550.988 134.016 586.626 176.378 594.023 185.792C601.419 195.205 604.781 217.395 594.695 232.188C584.609 246.981 572.505 248.774 564.436 248.998L564.436 244.964C568.695 244.739 579.498 242.139 588.643 228.153C597.787 214.167 592.678 195.878 588.643 191.171C584.608 186.464 538.884 136.706 538.884 136.706L538.119 133.756C514.905 138.156 489.733 140.095 462.984 133.358L462.116 136.706C462.116 136.706 416.392 186.464 412.357 191.171C408.323 195.878 403.213 214.167 412.357 228.153C421.502 242.139 432.305 244.739 436.564 244.964L436.564 248.998C428.495 248.774 416.391 246.981 406.305 232.188C396.22 217.395 399.581 195.205 406.977 185.792C414.374 176.378 450.012 134.016 450.012 134.016C450.012 134.016 450.283 132.232 450.705 129.673C439.122 125.625 427.265 119.836 415.162 111.827L423.231 105.774C423.231 105.774 435.838 113.397 452.534 119.544C453.315 115.69 454.125 112.42 454.719 111.827C456.302 110.243 460.77 110.482 460.77 110.482L492.147 -8.34522ZM498.623 -4.0128L465.494 123.684C466.6 123.98 467.714 124.262 468.833 124.528L467.546 130.335L468.522 130.552L469.807 124.756C471.524 125.149 473.253 125.504 474.987 125.814L473.96 131.634L474.945 131.808L475.972 125.984C477.442 126.232 478.915 126.445 480.386 126.62C480.659 126.653 480.933 126.684 481.207 126.715L480.425 132.651L481.417 132.782L482.201 126.821C483.963 127.001 485.721 127.138 487.466 127.237L486.928 133.386L487.924 133.473L488.465 127.289C490.238 127.375 491.998 127.422 493.737 127.436L493.458 133.835L494.457 133.879L494.738 127.44C496.517 127.44 498.273 127.407 500 127.344L500 134L501 134L501 127.304C502.785 127.227 504.535 127.12 506.243 126.988L506.544 133.879L507.543 133.835L507.24 126.908C509.032 126.759 510.774 126.584 512.456 126.39L513.075 133.472L514.071 133.385L513.449 126.273C515.255 126.054 516.987 125.815 518.633 125.565L519.583 132.781L520.575 132.651L519.622 125.412C521.461 125.122 523.183 124.821 524.77 124.522L526.055 131.808L527.04 131.634L525.752 124.334C527.693 123.957 529.409 123.588 530.861 123.256L532.478 130.552L533.454 130.336L531.835 123.03C533.268 122.693 534.381 122.407 535.123 122.209L502.383 -3.99212C501.791 -3.88394 501.181 -3.82742 500.558 -3.82742C499.896 -3.82742 499.249 -3.89115 498.623 -4.0128ZM463.46 117.878C463.46 116.022 461.954 114.516 460.098 114.516C458.241 114.516 456.736 116.022 456.736 117.878C456.736 119.735 458.241 121.24 460.098 121.24C461.954 121.24 463.46 119.735 463.46 117.878ZM540.902 114.516C539.045 114.516 537.54 116.022 537.54 117.878C537.54 119.735 539.045 121.24 540.902 121.24C542.759 121.24 544.264 119.735 544.264 117.878C544.264 116.022 542.759 114.516 540.902 114.516ZM500.558 -19.9647C497.215 -19.9647 494.506 -17.2552 494.506 -13.913C494.506 -10.5707 497.215 -7.86131 500.558 -7.86131C503.9 -7.86131 506.609 -10.5707 506.609 -13.913C506.609 -17.2552 503.9 -19.9647 500.558 -19.9647Z" fill="black"/>
</g>
<defs>
<filter id="filter0_d" x="421" y="140" width="159.08" height="232" filterUnits="userSpaceOnUse" color-interpolation-filters="sRGB">
<feFlood flood-opacity="0" result="BackgroundImageFix"/>
<feColorMatrix in="SourceAlpha" type="matrix" values="0 0 0 0 0 0 0 0 0 0 0 0 0 0 0 0 0 0 127 0" result="hardAlpha"/>
<feOffset/>
<feGaussianBlur stdDeviation="8"/>
<feColorMatrix type="matrix" values="0 0 0 0 0.02 0 0 0 0 1 0 0 0 0 0 0 0 0 1 0"/>
<feBlend mode="normal" in2="BackgroundImageFix" result="effect1_dropShadow"/>
<feBlend mode="normal" in="SourceGraphic" in2="effect1_dropShadow" result="shape"/>
</filter>
<filter id="filter1_d" x="548" y="231.5" width="469" height="33" filterUnits="userSpaceOnUse" color-interpolation-filters="sRGB">
<feFlood flood-opacity="0" result="BackgroundImageFix"/>
<feColorMatrix in="SourceAlpha" type="matrix" values="0 0 0 0 0 0 0 0 0 0 0 0 0 0 0 0 0 0 127 0" result="hardAlpha"/>
<feOffset/>
<feGaussianBlur stdDeviation="8"/>
<feColorMatrix type="matrix" values="0 0 0 0 1 0 0 0 0 0 0 0 0 0 0 0 0 0 1 0"/>
<feBlend mode="normal" in2="BackgroundImageFix" result="effect1_dropShadow"/>
<feBlend mode="normal" in="SourceGraphic" in2="effect1_dropShadow" result="shape"/>
</filter>
<filter id="filter2_d" x="548" y="263.5" width="469" height="33" filterUnits="userSpaceOnUse" color-interpolation-filters="sRGB">
<feFlood flood-opacity="0" result="BackgroundImageFix"/>
<feColorMatrix in="SourceAlpha" type="matrix" values="0 0 0 0 0 0 0 0 0 0 0 0 0 0 0 0 0 0 127 0" result="hardAlpha"/>
<feOffset/>
<feGaussianBlur stdDeviation="8"/>
<feColorMatrix type="matrix" values="0 0 0 0 1 0 0 0 0 0 0 0 0 0 0 0 0 0 1 0"/>
<feBlend mode="normal" in2="BackgroundImageFix" result="effect1_dropShadow"/>
<feBlend mode="normal" in="SourceGraphic" in2="effect1_dropShadow" result="shape"/>
</filter>
<filter id="filter3_d" x="546" y="295.5" width="471" height="33" filterUnits="userSpaceOnUse" color-interpolation-filters="sRGB">
<feFlood flood-opacity="0" result="BackgroundImageFix"/>
<feColorMatrix in="SourceAlpha" type="matrix" values="0 0 0 0 0 0 0 0 0 0 0 0 0 0 0 0 0 0 127 0" result="hardAlpha"/>
<feOffset/>
<feGaussianBlur stdDeviation="8"/>
<feColorMatrix type="matrix" values="0 0 0 0 1 0 0 0 0 0 0 0 0 0 0 0 0 0 1 0"/>
<feBlend mode="normal" in2="BackgroundImageFix" result="effect1_dropShadow"/>
<feBlend mode="normal" in="SourceGraphic" in2="effect1_dropShadow" result="shape"/>
</filter>
<filter id="filter4_d" x="521" y="327.5" width="496" height="33" filterUnits="userSpaceOnUse" color-interpolation-filters="sRGB">
<feFlood flood-opacity="0" result="BackgroundImageFix"/>
<feColorMatrix in="SourceAlpha" type="matrix" values="0 0 0 0 0 0 0 0 0 0 0 0 0 0 0 0 0 0 127 0" result="hardAlpha"/>
<feOffset/>
<feGaussianBlur stdDeviation="8"/>
<feColorMatrix type="matrix" values="0 0 0 0 1 0 0 0 0 0 0 0 0 0 0 0 0 0 1 0"/>
<feBlend mode="normal" in2="BackgroundImageFix" result="effect1_dropShadow"/>
<feBlend mode="normal" in="SourceGraphic" in2="effect1_dropShadow" result="shape"/>
</filter>
<filter id="filter5_d" x="548" y="199.5" width="469" height="33" filterUnits="userSpaceOnUse" color-interpolation-filters="sRGB">
<feFlood flood-opacity="0" result="BackgroundImageFix"/>
<feColorMatrix in="SourceAlpha" type="matrix" values="0 0 0 0 0 0 0 0 0 0 0 0 0 0 0 0 0 0 127 0" result="hardAlpha"/>
<feOffset/>
<feGaussianBlur stdDeviation="8"/>
<feColorMatrix type="matrix" values="0 0 0 0 1 0 0 0 0 0 0 0 0 0 0 0 0 0 1 0"/>
<feBlend mode="normal" in2="BackgroundImageFix" result="effect1_dropShadow"/>
<feBlend mode="normal" in="SourceGraphic" in2="effect1_dropShadow" result="shape"/>
</filter>
<filter id="filter6_d" x="537" y="167.5" width="480" height="33" filterUnits="userSpaceOnUse" color-interpolation-filters="sRGB">
<feFlood flood-opacity="0" result="BackgroundImageFix"/>
<feColorMatrix in="SourceAlpha" type="matrix" values="0 0 0 0 0 0 0 0 0 0 0 0 0 0 0 0 0 0 127 0" result="hardAlpha"/>
<feOffset/>
<feGaussianBlur stdDeviation="8"/>
<feColorMatrix type="matrix" values="0 0 0 0 1 0 0 0 0 0 0 0 0 0 0 0 0 0 1 0"/>
<feBlend mode="normal" in2="BackgroundImageFix" result="effect1_dropShadow"/>
<feBlend mode="normal" in="SourceGraphic" in2="effect1_dropShadow" result="shape"/>
</filter>
<filter id="filter7_d" x="-15" y="135.5" width="1032" height="33.0001" filterUnits="userSpaceOnUse" color-interpolation-filters="sRGB">
<feFlood flood-opacity="0" result="BackgroundImageFix"/>
<feColorMatrix in="SourceAlpha" type="matrix" values="0 0 0 0 0 0 0 0 0 0 0 0 0 0 0 0 0 0 127 0" result="hardAlpha"/>
<feOffset/>
<feGaussianBlur stdDeviation="8"/>
<feColorMatrix type="matrix" values="0 0 0 0 1 0 0 0 0 0 0 0 0 0 0 0 0 0 1 0"/>
<feBlend mode="normal" in2="BackgroundImageFix" result="effect1_dropShadow"/>
<feBlend mode="normal" in="SourceGraphic" in2="effect1_dropShadow" result="shape"/>
</filter>
<filter id="filter8_d" x="-15" y="103.5" width="1032" height="33.0001" filterUnits="userSpaceOnUse" color-interpolation-filters="sRGB">
<feFlood flood-opacity="0" result="BackgroundImageFix"/>
<feColorMatrix in="SourceAlpha" type="matrix" values="0 0 0 0 0 0 0 0 0 0 0 0 0 0 0 0 0 0 127 0" result="hardAlpha"/>
<feOffset/>
<feGaussianBlur stdDeviation="8"/>
<feColorMatrix type="matrix" values="0 0 0 0 1 0 0 0 0 0 0 0 0 0 0 0 0 0 1 0"/>
<feBlend mode="normal" in2="BackgroundImageFix" result="effect1_dropShadow"/>
<feBlend mode="normal" in="SourceGraphic" in2="effect1_dropShadow" result="shape"/>
</filter>
<filter id="filter9_d" x="-15" y="71.5" width="1032" height="33.0001" filterUnits="userSpaceOnUse" color-interpolation-filters="sRGB">
<feFlood flood-opacity="0" result="BackgroundImageFix"/>
<feColorMatrix in="SourceAlpha" type="matrix" values="0 0 0 0 0 0 0 0 0 0 0 0 0 0 0 0 0 0 127 0" result="hardAlpha"/>
<feOffset/>
<feGaussianBlur stdDeviation="8"/>
<feColorMatrix type="matrix" values="0 0 0 0 1 0 0 0 0 0 0 0 0 0 0 0 0 0 1 0"/>
<feBlend mode="normal" in2="BackgroundImageFix" result="effect1_dropShadow"/>
<feBlend mode="normal" in="SourceGraphic" in2="effect1_dropShadow" result="shape"/>
</filter>
<filter id="filter10_d" x="-15" y="39.5" width="1032" height="33.0001" filterUnits="userSpaceOnUse" color-interpolation-filters="sRGB">
<feFlood flood-opacity="0" result="BackgroundImageFix"/>
<feColorMatrix in="SourceAlpha" type="matrix" values="0 0 0 0 0 0 0 0 0 0 0 0 0 0 0 0 0 0 127 0" result="hardAlpha"/>
<feOffset/>
<feGaussianBlur stdDeviation="8"/>
<feColorMatrix type="matrix" values="0 0 0 0 1 0 0 0 0 0 0 0 0 0 0 0 0 0 1 0"/>
<feBlend mode="normal" in2="BackgroundImageFix" result="effect1_dropShadow"/>
<feBlend mode="normal" in="SourceGraphic" in2="effect1_dropShadow" result="shape"/>
</filter>
<filter id="filter11_d" x="-15" y="7.5" width="1032" height="33.0001" filterUnits="userSpaceOnUse" color-interpolation-filters="sRGB">
<feFlood flood-opacity="0" result="BackgroundImageFix"/>
<feColorMatrix in="SourceAlpha" type="matrix" values="0 0 0 0 0 0 0 0 0 0 0 0 0 0 0 0 0 0 127 0" result="hardAlpha"/>
<feOffset/>
<feGaussianBlur stdDeviation="8"/>
<feColorMatrix type="matrix" values="0 0 0 0 1 0 0 0 0 0 0 0 0 0 0 0 0 0 1 0"/>
<feBlend mode="normal" in2="BackgroundImageFix" result="effect1_dropShadow"/>
<feBlend mode="normal" in="SourceGraphic" in2="effect1_dropShadow" result="shape"/>
</filter>
<filter id="filter12_d" x="548" y="-24.5" width="469" height="33" filterUnits="userSpaceOnUse" color-interpolation-filters="sRGB">
<feFlood flood-opacity="0" result="BackgroundImageFix"/>
<feColorMatrix in="SourceAlpha" type="matrix" values="0 0 0 0 0 0 0 0 0 0 0 0 0 0 0 0 0 0 127 0" result="hardAlpha"/>
<feOffset/>
<feGaussianBlur stdDeviation="8"/>
<feColorMatrix type="matrix" values="0 0 0 0 1 0 0 0 0 0 0 0 0 0 0 0 0 0 1 0"/>
<feBlend mode="normal" in2="BackgroundImageFix" result="effect1_dropShadow"/>
<feBlend mode="normal" in="SourceGraphic" in2="effect1_dropShadow" result="shape"/>
</filter>
<filter id="filter13_d" x="-15.0012" y="231.5" width="468.002" height="34" filterUnits="userSpaceOnUse" color-interpolation-filters="sRGB">
<feFlood flood-opacity="0" result="BackgroundImageFix"/>
<feColorMatrix in="SourceAlpha" type="matrix" values="0 0 0 0 0 0 0 0 0 0 0 0 0 0 0 0 0 0 127 0" result="hardAlpha"/>
<feOffset/>
<feGaussianBlur stdDeviation="8"/>
<feColorMatrix type="matrix" values="0 0 0 0 1 0 0 0 0 0 0 0 0 0 0 0 0 0 1 0"/>
<feBlend mode="normal" in2="BackgroundImageFix" result="effect1_dropShadow"/>
<feBlend mode="normal" in="SourceGraphic" in2="effect1_dropShadow" result="shape"/>
</filter>
<filter id="filter14_d" x="-15.0012" y="263.5" width="468.002" height="34" filterUnits="userSpaceOnUse" color-interpolation-filters="sRGB">
<feFlood flood-opacity="0" result="BackgroundImageFix"/>
<feColorMatrix in="SourceAlpha" type="matrix" values="0 0 0 0 0 0 0 0 0 0 0 0 0 0 0 0 0 0 127 0" result="hardAlpha"/>
<feOffset/>
<feGaussianBlur stdDeviation="8"/>
<feColorMatrix type="matrix" values="0 0 0 0 1 0 0 0 0 0 0 0 0 0 0 0 0 0 1 0"/>
<feBlend mode="normal" in2="BackgroundImageFix" result="effect1_dropShadow"/>
<feBlend mode="normal" in="SourceGraphic" in2="effect1_dropShadow" result="shape"/>
</filter>
<filter id="filter15_d" x="-15.0012" y="295.5" width="473.002" height="34" filterUnits="userSpaceOnUse" color-interpolation-filters="sRGB">
<feFlood flood-opacity="0" result="BackgroundImageFix"/>
<feColorMatrix in="SourceAlpha" type="matrix" values="0 0 0 0 0 0 0 0 0 0 0 0 0 0 0 0 0 0 127 0" result="hardAlpha"/>
<feOffset/>
<feGaussianBlur stdDeviation="8"/>
<feColorMatrix type="matrix" values="0 0 0 0 1 0 0 0 0 0 0 0 0 0 0 0 0 0 1 0"/>
<feBlend mode="normal" in2="BackgroundImageFix" result="effect1_dropShadow"/>
<feBlend mode="normal" in="SourceGraphic" in2="effect1_dropShadow" result="shape"/>
</filter>
<filter id="filter16_d" x="-15.001" y="327.5" width="501.002" height="34" filterUnits="userSpaceOnUse" color-interpolation-filters="sRGB">
<feFlood flood-opacity="0" result="BackgroundImageFix"/>
<feColorMatrix in="SourceAlpha" type="matrix" values="0 0 0 0 0 0 0 0 0 0 0 0 0 0 0 0 0 0 127 0" result="hardAlpha"/>
<feOffset/>
<feGaussianBlur stdDeviation="8"/>
<feColorMatrix type="matrix" values="0 0 0 0 1 0 0 0 0 0 0 0 0 0 0 0 0 0 1 0"/>
<feBlend mode="normal" in2="BackgroundImageFix" result="effect1_dropShadow"/>
<feBlend mode="normal" in="SourceGraphic" in2="effect1_dropShadow" result="shape"/>
</filter>
<filter id="filter17_d" x="-15.0015" y="358.5" width="1032" height="36" filterUnits="userSpaceOnUse" color-interpolation-filters="sRGB">
<feFlood flood-opacity="0" result="BackgroundImageFix"/>
<feColorMatrix in="SourceAlpha" type="matrix" values="0 0 0 0 0 0 0 0 0 0 0 0 0 0 0 0 0 0 127 0" result="hardAlpha"/>
<feOffset/>
<feGaussianBlur stdDeviation="8"/>
<feColorMatrix type="matrix" values="0 0 0 0 1 0 0 0 0 0 0 0 0 0 0 0 0 0 1 0"/>
<feBlend mode="normal" in2="BackgroundImageFix" result="effect1_dropShadow"/>
<feBlend mode="normal" in="SourceGraphic" in2="effect1_dropShadow" result="shape"/>
</filter>
<filter id="filter18_d" x="-15.0015" y="390.5" width="1032" height="36" filterUnits="userSpaceOnUse" color-interpolation-filters="sRGB">
<feFlood flood-opacity="0" result="BackgroundImageFix"/>
<feColorMatrix in="SourceAlpha" type="matrix" values="0 0 0 0 0 0 0 0 0 0 0 0 0 0 0 0 0 0 127 0" result="hardAlpha"/>
<feOffset/>
<feGaussianBlur stdDeviation="8"/>
<feColorMatrix type="matrix" values="0 0 0 0 1 0 0 0 0 0 0 0 0 0 0 0 0 0 1 0"/>
<feBlend mode="normal" in2="BackgroundImageFix" result="effect1_dropShadow"/>
<feBlend mode="normal" in="SourceGraphic" in2="effect1_dropShadow" result="shape"/>
</filter>
<filter id="filter19_d" x="-15.0015" y="422.5" width="1032" height="36" filterUnits="userSpaceOnUse" color-interpolation-filters="sRGB">
<feFlood flood-opacity="0" result="BackgroundImageFix"/>
<feColorMatrix in="SourceAlpha" type="matrix" values="0 0 0 0 0 0 0 0 0 0 0 0 0 0 0 0 0 0 127 0" result="hardAlpha"/>
<feOffset/>
<feGaussianBlur stdDeviation="8"/>
<feColorMatrix type="matrix" values="0 0 0 0 1 0 0 0 0 0 0 0 0 0 0 0 0 0 1 0"/>
<feBlend mode="normal" in2="BackgroundImageFix" result="effect1_dropShadow"/>
<feBlend mode="normal" in="SourceGraphic" in2="effect1_dropShadow" result="shape"/>
</filter>
<filter id="filter20_d" x="-15.0015" y="454.5" width="1032" height="36" filterUnits="userSpaceOnUse" color-interpolation-filters="sRGB">
<feFlood flood-opacity="0" result="BackgroundImageFix"/>
<feColorMatrix in="SourceAlpha" type="matrix" values="0 0 0 0 0 0 0 0 0 0 0 0 0 0 0 0 0 0 127 0" result="hardAlpha"/>
<feOffset/>
<feGaussianBlur stdDeviation="8"/>
<feColorMatrix type="matrix" values="0 0 0 0 1 0 0 0 0 0 0 0 0 0 0 0 0 0 1 0"/>
<feBlend mode="normal" in2="BackgroundImageFix" result="effect1_dropShadow"/>
<feBlend mode="normal" in="SourceGraphic" in2="effect1_dropShadow" result="shape"/>
</filter>
<filter id="filter21_d" x="-15.0015" y="486.5" width="1032" height="36" filterUnits="userSpaceOnUse" color-interpolation-filters="sRGB">
<feFlood flood-opacity="0" result="BackgroundImageFix"/>
<feColorMatrix in="SourceAlpha" type="matrix" values="0 0 0 0 0 0 0 0 0 0 0 0 0 0 0 0 0 0 127 0" result="hardAlpha"/>
<feOffset/>
<feGaussianBlur stdDeviation="8"/>
<feColorMatrix type="matrix" values="0 0 0 0 1 0 0 0 0 0 0 0 0 0 0 0 0 0 1 0"/>
<feBlend mode="normal" in2="BackgroundImageFix" result="effect1_dropShadow"/>
<feBlend mode="normal" in="SourceGraphic" in2="effect1_dropShadow" result="shape"/>
</filter>
<filter id="filter22_d" x="-15.0012" y="199.5" width="468.002" height="34" filterUnits="userSpaceOnUse" color-interpolation-filters="sRGB">
<feFlood flood-opacity="0" result="BackgroundImageFix"/>
<feColorMatrix in="SourceAlpha" type="matrix" values="0 0 0 0 0 0 0 0 0 0 0 0 0 0 0 0 0 0 127 0" result="hardAlpha"/>
<feOffset/>
<feGaussianBlur stdDeviation="8"/>
<feColorMatrix type="matrix" values="0 0 0 0 1 0 0 0 0 0 0 0 0 0 0 0 0 0 1 0"/>
<feBlend mode="normal" in2="BackgroundImageFix" result="effect1_dropShadow"/>
<feBlend mode="normal" in="SourceGraphic" in2="effect1_dropShadow" result="shape"/>
</filter>
<filter id="filter23_d" x="-15.0012" y="167.5" width="482.002" height="34" filterUnits="userSpaceOnUse" color-interpolation-filters="sRGB">
<feFlood flood-opacity="0" result="BackgroundImageFix"/>
<feColorMatrix in="SourceAlpha" type="matrix" values="0 0 0 0 0 0 0 0 0 0 0 0 0 0 0 0 0 0 127 0" result="hardAlpha"/>
<feOffset/>
<feGaussianBlur stdDeviation="8"/>
<feColorMatrix type="matrix" values="0 0 0 0 1 0 0 0 0 0 0 0 0 0 0 0 0 0 1 0"/>
<feBlend mode="normal" in2="BackgroundImageFix" result="effect1_dropShadow"/>
<feBlend mode="normal" in="SourceGraphic" in2="effect1_dropShadow" result="shape"/>
</filter>
<filter id="filter24_d" x="-15.0012" y="-24.5" width="468.002" height="34" filterUnits="userSpaceOnUse" color-interpolation-filters="sRGB">
<feFlood flood-opacity="0" result="BackgroundImageFix"/>
<feColorMatrix in="SourceAlpha" type="matrix" values="0 0 0 0 0 0 0 0 0 0 0 0 0 0 0 0 0 0 127 0" result="hardAlpha"/>
<feOffset/>
<feGaussianBlur stdDeviation="8"/>
<feColorMatrix type="matrix" values="0 0 0 0 1 0 0 0 0 0 0 0 0 0 0 0 0 0 1 0"/>
<feBlend mode="normal" in2="BackgroundImageFix" result="effect1_dropShadow"/>
<feBlend mode="normal" in="SourceGraphic" in2="effect1_dropShadow" result="shape"/>
</filter>
<clipPath id="clip0">
<rect width="1000" height="516" fill="white"/>
</clipPath>
</defs>
</svg>
