<?xml version="1.0" encoding="UTF-8" standalone="no"?>
<svg
   width="1000"
   height="516"
   viewBox="-340 0 1000 516"
   fill="none"
   version="1.1"
   id="svg112"
   sodipodi:docname="frame-overlay2.svg"
   inkscape:version="1.1 (c4e8f9e, 2021-05-24)"
   xmlns:inkscape="http://www.inkscape.org/namespaces/inkscape"
   xmlns:sodipodi="http://sodipodi.sourceforge.net/DTD/sodipodi-0.dtd"
   xmlns="http://www.w3.org/2000/svg"
   xmlns:svg="http://www.w3.org/2000/svg">
  <defs
     id="defs116">
    <filter
       id="filter0_d"
       x="-340"
       y="0"
       width="1000"
       height="516"
       filterUnits="userSpaceOnUse"
       color-interpolation-filters="sRGB">
      <feFlood
         flood-opacity="0"
         result="BackgroundImageFix"
         id="feFlood18" />
      <feColorMatrix
         in="SourceAlpha"
         type="matrix"
         values="0 0 0 0 0 0 0 0 0 0 0 0 0 0 0 0 0 0 127 0"
         id="feColorMatrix20" />
      <feOffset
         id="feOffset22" />
      <feGaussianBlur
         stdDeviation="8"
         id="feGaussianBlur24" />
      <feColorMatrix
         type="matrix"
         values="0 0 0 0 0.02 0 0 0 0 1 0 0 0 0 0 0 0 0 1 0"
         id="feColorMatrix26" />
      <feBlend
         mode="normal"
         in2="BackgroundImageFix"
         result="effect1_dropShadow"
         id="feBlend28" />
      <feBlend
         mode="normal"
         in="SourceGraphic"
         in2="effect1_dropShadow"
         result="shape"
         id="feBlend30" />
    </filter>
  </defs>
  <sodipodi:namedview
     id="namedview114"
     pagecolor="#ffffff"
     bordercolor="#666666"
     borderopacity="1.0"
     inkscape:pageshadow="2"
     inkscape:pageopacity="0.0"
     inkscape:pagecheckerboard="0"
     showgrid="false"
     inkscape:zoom="0.66957483"
     inkscape:cx="663.85411"
     inkscape:cy="379.3452"
     inkscape:window-width="1312"
     inkscape:window-height="982"
     inkscape:window-x="0"
     inkscape:window-y="25"
     inkscape:window-maximized="0"
     inkscape:current-layer="svg112" />
  <path
     fill-rule="evenodd"
     clip-rule="evenodd"
     d="M 660,0 H -340 V 516 H 660 Z M 160.5,129 C 116.041,129 80,165.041 80,209.5 v 97 c 0,44.459 36.041,80.5 80.5,80.5 44.459,0 80.5,-36.041 80.5,-80.5 v -97 C 241,165.041 204.959,129 160.5,129 Z"
     fill="#000000"
     fill-opacity="0.33"
     id="path110"
     style="display:inline" />
  <circle
     cx="310.022"
     cy="389.00699"
     r="8"
     transform="rotate(0.00930358,862482.77,-1139482.6)"
     stroke="#ffffff"
     stroke-width="2"
     id="circle2"
     style="display:inline;mix-blend-mode:lighten;filter:url(#filter0_d)" />
  <circle
     cx="380.022"
     cy="389.01901"
     r="8"
     transform="rotate(0.00930358,862552.77,-1139560.3)"
     stroke="#ffffff"
     stroke-width="2"
     id="circle4"
     style="display:inline;mix-blend-mode:lighten;filter:url(#filter0_d)" />
  <path
     id="line6"
     clip-path="none"
     style="display:inline;mix-blend-mode:lighten;stroke:#ffffff;stroke-width:2;stroke-dasharray:2, 4;filter:url(#filter0_d)"
     d="M 238.959,247.987 H 660.78596"
     sodipodi:nodetypes="cc" />
  <path
     id="line12"
     style="display:inline;mix-blend-mode:lighten;stroke:#ffffff;stroke-width:2;stroke-dasharray:2, 4;filter:url(#filter0_d)"
     d="M 160.959,382.987 V 517.90315"
     sodipodi:nodetypes="cc" />
  <path
     d="m 236.988,205.512 -0.016,97 8,0.002 0.016,-97 z m -153.016,96.976 0.016,-97 -8,-0.002 -0.016,97 z M 160.46,379 C 118.21,378.993 83.965,344.737 83.972,302.488 l -8,-0.002 c -0.007,46.668 37.818,84.506 84.486,84.514 z m 76.512,-76.488 C 236.965,344.762 202.71,379.007 160.46,379 l -0.002,8 c 46.669,0.008 84.507,-37.818 84.514,-84.486 z M 160.5,129 c 42.25,0.007 76.495,34.263 76.488,76.512 l 8,0.002 C 244.995,158.846 207.17,121.008 160.502,121 Z m 0.002,-8 c -46.668,-0.008 -84.507,37.818 -84.514,84.486 l 8,0.002 C 83.995,163.238 118.251,128.993 160.5,129 Z"
     fill="#ffffff"
     id="path14"
     style="display:inline;mix-blend-mode:lighten;filter:url(#filter0_d)" />
  <path
     style="mix-blend-mode:lighten;stroke:#ffffff;stroke-width:2;stroke-dasharray:2, 4;filter:url(#filter0_d)"
     d="M -338.73012,248.63467 80.959,247.987"
     id="line8"
     sodipodi:nodetypes="cc" />
  <path
     id="line10"
     clip-path="none"
     mask="none"
     style="display:inline;mix-blend-mode:lighten;stroke:#ffffff;stroke-width:2;stroke-dasharray:2, 4;filter:url(#filter0_d)"
     inkscape:label="line10"
     d="M 160.959,-0.26931319 160.5,129"
     sodipodi:nodetypes="cc" />
</svg>
