<svg width="44" height="44" viewBox="0 0 44 44" fill="none" xmlns="http://www.w3.org/2000/svg">
<path d="M20.3335 21.5553C20.3335 22.177 19.7971 22.722 19.0835 22.722C18.3699 22.722 17.8335 22.177 17.8335 21.5553C17.8335 20.9337 18.3699 20.3887 19.0835 20.3887C19.7971 20.3887 20.3335 20.9337 20.3335 21.5553Z" fill="#2D2C29" stroke="#2D2C29"/>
<path d="M26.1665 21.5553C26.1665 22.177 25.6301 22.722 24.9165 22.722C24.2029 22.722 23.6665 22.177 23.6665 21.5553C23.6665 20.9337 24.2029 20.3887 24.9165 20.3887C25.6301 20.3887 26.1665 20.9337 26.1665 21.5553Z" fill="#2D2C29" stroke="#2D2C29"/>
<rect x="15.5" y="11.5" width="13" height="19" rx="6.5" stroke="#2D2C29"/>
<rect x="22.5" y="23.5" width="15" height="15" rx="7.5" fill="#2D2C29"/>
<path fill-rule="evenodd" clip-rule="evenodd" d="M27.8792 27.4648L26.465 28.8791L28.5861 31.0002L26.4644 33.1218L27.8786 34.5361L30.0003 32.4144L32.1218 34.5359L33.536 33.1217L31.4145 31.0002L33.5354 28.8792L32.1212 27.465L30.0003 29.5859L27.8792 27.4648Z" fill="#EAE7DF"/>
<rect x="22.5" y="23.5" width="15" height="15" rx="7.5" stroke="#EAE7DF"/>
</svg>
