<svg width="18" height="20" viewBox="0 0 18 20" fill="none" xmlns="http://www.w3.org/2000/svg">
<path d="M9.293 0.292786C9.48053 0.105315 9.73484 0 10 0C10.2652 0 10.5195 0.105315 10.707 0.292786L13.707 3.29279C13.8945 3.48031 13.9998 3.73462 13.9998 3.99979C13.9998 4.26495 13.8945 4.51926 13.707 4.70679L10.707 7.70679C10.5184 7.88894 10.2658 7.98974 10.0036 7.98746C9.7414 7.98518 9.49059 7.88001 9.30518 7.6946C9.11977 7.5092 9.0146 7.25838 9.01233 6.99619C9.01005 6.73399 9.11084 6.48139 9.293 6.29279L10.586 4.99979H9C5.452 4.99979 2.5 7.95179 2.5 11.4998C2.5 15.0478 5.452 17.9998 9 17.9998C12.548 17.9998 15.5 15.0478 15.5 11.4998C15.5 11.2346 15.6054 10.9802 15.7929 10.7927C15.9804 10.6051 16.2348 10.4998 16.5 10.4998C16.7652 10.4998 17.0196 10.6051 17.2071 10.7927C17.3946 10.9802 17.5 11.2346 17.5 11.4998C17.5 16.1518 13.652 19.9998 9 19.9998C4.348 19.9998 0.5 16.1518 0.5 11.4998C0.5 6.84779 4.348 2.99979 9 2.99979H10.586L9.293 1.70679C9.10553 1.51926 9.00021 1.26495 9.00021 0.999786C9.00021 0.734622 9.10553 0.480314 9.293 0.292786Z" fill="#2D2C29"/>
</svg>
